# xmcd
#
# Track frame offsets:
#	150
#	10860
#	21795
#	32248
#	43825
#	55643
#	66653
#	78693
#	88700
#	101268
#	117035
#	133595
#	146203
#	157363
#	166185
#	180775
#	196810
#	207310
#	218840
#	231045
#	243625
#	255305
#	268575
#	281898
#	295330
#	311083
#
# Disc length: 4288
#
# Revision: 6
# Processed by: cddbd v1.5.1PL0 Copyright (c) Steve Scherf et al.
# Submitted via: ExactAudioCopy v0.95a5
# Normalized: r5:DSETVAR1
#
DISCID=7f10be1a
DTITLE=Various Artist - Bad, Bad Whiskey
DYEAR=1993
DGENRE=Blues
TTITLE0=Rodger Collins - She's Looking Good
TTITLE1=Merced Blue Notes - Rufus Jr.
TTITLE2=Betty Everett - I Got To Tell Somebody
TTITLE3=Bobby Rush - Chicken Heads
TTITLE4=Bill Coday - Get Your Lie Straight
TTITLE5=Right Kind - (Tell Me) Why Do You Have To Lie?
TTITLE6=Sonny Rhodes - You Better Stop
TTITLE7=Little Johnny Taylor - Nightingale Melody
TTITLE8=Merl Saunders - I Pity the Fool
TTITLE9=J. J. Malone - It's a Shame
TTITLE10=Loleatta Holloway - Rainbow 71
TTITLE11=Rodger Collins - Foxy Girls In Oakland
TTITLE12=Bill Coday - When You Find a Fool Bump His Head
TTITLE13=Merced Blue Notes - Mama Rufus
TTITLE14=Little Johnny Taylor - For Your Precious Love
TTITLE15=Charles Brown - Abraham, Martin and John
TTITLE16=Merced Blue Notes - Bad, Bad Whiskey
TTITLE17=Lenny Williams - How Can I Forget You
TTITLE18=Betty Everett - Ain't Nothing Gonna Change Me
TTITLE19=Bill Coday - A Woman Rules the World
TTITLE20=Claude Huey - Why Did Our Love Go
TTITLE21=Bill Coday - Let Me Be Your Handy Man
TTITLE22=Bobby Eaton - Fever, Fever, Fever
TTITLE23=Lenny Williams - Lisa's Gone
TTITLE24=Johnny "Guitar" Watson - I Don't Want To Be a Lone Ranger
TTITLE25=Rodger Collins - Get Away From Me
EXTD=LABEL =Specialty Records, Inc.\nID =SPCD7057-2\nUPC =022211-7057-2\nCOPYRIGHT =1993
EXTT0=
EXTT1=
EXTT2=
EXTT3=
EXTT4=
EXTT5=
EXTT6=
EXTT7=
EXTT8=
EXTT9=
EXTT10=
EXTT11=
EXTT12=
EXTT13=
EXTT14=
EXTT15=
EXTT16=
EXTT17=
EXTT18=
EXTT19=
EXTT20=
EXTT21=
EXTT22=
EXTT23=
EXTT24=
EXTT25=
PLAYORDER=
